{
  "accessors": [
    {
      "bufferView": 2,
      "componentType": 5126,
      "count": 9345,
      "max": [
        15.90576171875,
        43.001468658447266,
        12.850150108337402
      ],
      "min": [
        -14.916285514831543,
        7.897742748260498,
        -7.532847881317139
      ],
      "type": "VEC3"
    },
    {
      "bufferView": 2,
      "byteOffset": 112140,
      "componentType": 5126,
      "count": 9345,
      "max": [
        0.9999589920043945,
        0.9999800324440002,
        0.9998987913131714
      ],
      "min": [
        -0.9999588131904602,
        -0.999979555606842,
        -0.9999140501022339
      ],
      "type": "VEC3"
    },
    {
      "bufferView": 3,
      "componentType": 5126,
      "count": 9345,
      "max": [
        0.999854564666748,
        0.9999998807907104,
        0.9999958872795105,
        1.0
      ],
      "min": [
        -0.9999992251396179,
        -0.9999969005584717,
        -0.9999993443489075,
        -1.0
      ],
      "type": "VEC4"
    },
    {
      "bufferView": 1,
      "componentType": 5126,
      "count": 9345,
      "max": [
        1.9040614366531372,
        0.9884476661682129
      ],
      "min": [
        0.0,
        0.0
      ],
      "type": "VEC2"
    },
    {
      "bufferView": 1,
      "byteOffset": 74760,
      "componentType": 5126,
      "count": 9345,
      "max": [
        0.99951171875,
        0.8486948609352112
      ],
      "min": [
        0.0,
        0.0
      ],
      "type": "VEC2"
    },
    {
      "bufferView": 0,
      "componentType": 5125,
      "count": 46842,
      "type": "SCALAR"
    },
    {
      "bufferView": 2,
      "byteOffset": 224280,
      "componentType": 5126,
      "count": 10494,
      "max": [
        16.362838745117188,
        39.57915496826172,
        10.486587524414063
      ],
      "min": [
        -12.60031795501709,
        -0.02312522381544113,
        -6.5029730796813965
      ],
      "type": "VEC3"
    },
    {
      "bufferView": 2,
      "byteOffset": 350208,
      "componentType": 5126,
      "count": 10494,
      "max": [
        0.999984622001648,
        0.9999574422836304,
        0.9999827742576599
      ],
      "min": [
        -0.9999256134033203,
        -0.9999607801437378,
        -0.9999741315841675
      ],
      "type": "VEC3"
    },
    {
      "bufferView": 3,
      "byteOffset": 149520,
      "componentType": 5126,
      "count": 10494,
      "max": [
        0.9999992847442627,
        0.9999956488609314,
        0.9999900460243225,
        1.0
      ],
      "min": [
        -0.9999982118606567,
        -0.9999676942825317,
        -0.9999999403953552,
        -1.0
      ],
      "type": "VEC4"
    },
    {
      "bufferView": 1,
      "byteOffset": 149520,
      "componentType": 5126,
      "count": 10494,
      "max": [
        1.9973602294921875,
        1.001815915107727
      ],
      "min": [
        -0.00529845803976059,
        0.002552386838942766
      ],
      "type": "VEC2"
    },
    {
      "bufferView": 1,
      "byteOffset": 233472,
      "componentType": 5126,
      "count": 10494,
      "max": [
        0.0,
        0.0
      ],
      "min": [
        0.0,
        0.0
      ],
      "type": "VEC2"
    },
    {
      "bufferView": 0,
      "byteOffset": 187368,
      "componentType": 5125,
      "count": 46812,
      "type": "SCALAR"
    },
    {
      "bufferView": 2,
      "byteOffset": 476136,
      "componentType": 5126,
      "count": 3122,
      "max": [
        16.56682586669922,
        39.91927719116211,
        1.565751552581787
      ],
      "min": [
        -3.658222198486328,
        29.431276321411133,
        -3.150097131729126
      ],
      "type": "VEC3"
    },
    {
      "bufferView": 2,
      "byteOffset": 513600,
      "componentType": 5126,
      "count": 3122,
      "max": [
        0.9998803734779358,
        0.9993945956230164,
        0.9988565444946289
      ],
      "min": [
        -0.9997555613517761,
        -0.998944878578186,
        -0.9982749819755554
      ],
      "type": "VEC3"
    },
    {
      "bufferView": 1,
      "byteOffset": 317424,
      "componentType": 5126,
      "count": 3122,
      "max": [
        0.99951171875,
        0.6913343667984009
      ],
      "min": [
        0.00048828125,
        0.00048828125
      ],
      "type": "VEC2"
    },
    {
      "bufferView": 1,
      "byteOffset": 342400,
      "componentType": 5126,
      "count": 3122,
      "max": [
        0.0,
        0.0
      ],
      "min": [
        0.0,
        0.0
      ],
      "type": "VEC2"
    },
    {
      "bufferView": 0,
      "byteOffset": 374616,
      "componentType": 5125,
      "count": 16440,
      "type": "SCALAR"
    }
  ],
  "asset": {
    "extras": {
      "author": "Johan Pindeville (https://sketchfab.com/johanpindeville)",
      "license": "CC-BY-4.0 (http://creativecommons.org/licenses/by/4.0/)",
      "source": "https://sketchfab.com/3d-models/skeleton-mage-stylized-creation-assignment-4909652595aa43cb841566c462be0f9e",
      "title": "Skeleton Mage  [Stylized creation Assignment]"
    },
    "generator": "Sketchfab-15.27.0",
    "version": "2.0"
  },
  "bufferViews": [
    {
      "buffer": 0,
      "byteLength": 440376,
      "name": "floatBufferViews",
      "target": 34963
    },
    {
      "buffer": 0,
      "byteLength": 367376,
      "byteOffset": 440376,
      "byteStride": 8,
      "name": "floatBufferViews",
      "target": 34962
    },
    {
      "buffer": 0,
      "byteLength": 551064,
      "byteOffset": 807752,
      "byteStride": 12,
      "name": "floatBufferViews",
      "target": 34962
    },
    {
      "buffer": 0,
      "byteLength": 317424,
      "byteOffset": 1358816,
      "byteStride": 16,
      "name": "floatBufferViews",
      "target": 34962
    }
  ],
  "buffers": [
    {
      "byteLength": 1676240,
      "uri": "scene.bin"
    }
  ],
  "extensionsUsed": [
    "KHR_materials_specular"
  ],
  "images": [
    {
      "uri": "textures/unwrap_mage_1_baseColor.png"
    },
    {
      "uri": "textures/unwrap_mage_1_metallicRoughness.png"
    },
    {
      "uri": "textures/unwrap_mage_1_normal.png"
    },
    {
      "uri": "textures/uwrap_mage_2_baseColor.png"
    },
    {
      "uri": "textures/uwrap_mage_2_metallicRoughness.png"
    },
    {
      "uri": "textures/uwrap_mage_2_normal.png"
    },
    {
      "uri": "textures/flame1_baseColor.png"
    }
  ],
  "materials": [
    {
      "doubleSided": true,
      "extensions": {
        "KHR_materials_specular": {
          "specularColorFactor": [
            1.0,
            1.0,
            1.0
          ],
          "specularFactor": 0.0
        }
      },
      "name": "unwrap_mage_1",
      "normalTexture": {
        "index": 2
      },
      "pbrMetallicRoughness": {
        "baseColorTexture": {
          "index": 0
        },
        "metallicRoughnessTexture": {
          "index": 1
        }
      }
    },
    {
      "doubleSided": true,
      "extensions": {
        "KHR_materials_specular": {
          "specularColorFactor": [
            1.0,
            1.0,
            1.0
          ],
          "specularFactor": 0.0
        }
      },
      "name": "uwrap_mage_2",
      "normalTexture": {
        "index": 5
      },
      "pbrMetallicRoughness": {
        "baseColorTexture": {
          "index": 3
        },
        "metallicRoughnessTexture": {
          "index": 4
        }
      }
    },
    {
      "emissiveFactor": [
        1.0,
        1.0,
        1.0
      ],
      "emissiveTexture": {
        "index": 6
      },
      "extensions": {
        "KHR_materials_specular": {
          "specularColorFactor": [
            1.0,
            1.0,
            1.0
          ],
          "specularFactor": 0.0
        }
      },
      "name": "flame1",
      "pbrMetallicRoughness": {
        "baseColorTexture": {
          "index": 6
        },
        "metallicFactor": 0.0,
        "roughnessFactor": 0.41295363947775837
      }
    }
  ],
  "meshes": [
    {
      "name": "mage_skeelton_unwrap_mage_1_0",
      "primitives": [
        {
          "attributes": {
            "NORMAL": 1,
            "POSITION": 0,
            "TANGENT": 2,
            "TEXCOORD_0": 3,
            "TEXCOORD_1": 4
          },
          "indices": 5,
          "material": 0,
          "mode": 4
        }
      ]
    },
    {
      "name": "mage_skeelton_uwrap_mage_2_0",
      "primitives": [
        {
          "attributes": {
            "NORMAL": 7,
            "POSITION": 6,
            "TANGENT": 8,
            "TEXCOORD_0": 9,
            "TEXCOORD_1": 10
          },
          "indices": 11,
          "material": 1,
          "mode": 4
        }
      ]
    },
    {
      "name": "mage_skeelton_flame1_0",
      "primitives": [
        {
          "attributes": {
            "NORMAL": 13,
            "POSITION": 12,
            "TEXCOORD_0": 14,
            "TEXCOORD_1": 15
          },
          "indices": 16,
          "material": 2,
          "mode": 4
        }
      ]
    }
  ],
  "nodes": [
    {
      "children": [
        1
      ],
      "matrix": [
        1.0,
        0.0,
        0.0,
        0.0,
        0.0,
        2.220446049250313e-16,
        -1.0,
        0.0,
        0.0,
        1.0,
        2.220446049250313e-16,
        0.0,
        0.0,
        0.0,
        0.0,
        1.0
      ],
      "name": "Sketchfab_model"
    },
    {
      "children": [
        2
      ],
      "matrix": [
        0.009999999776482582,
        0.0,
        0.0,
        0.0,
        0.0,
        0.0,
        0.009999999776482582,
        0.0,
        0.0,
        -0.009999999776482582,
        0.0,
        0.0,
        0.0,
        0.0,
        0.0,
        1.0
      ],
      "name": "2b387d8523e94a0880d6c3c877ae2123.fbx"
    },
    {
      "children": [
        3
      ],
      "name": "RootNode"
    },
    {
      "children": [
        4,
        5,
        6
      ],
      "name": "mage_skeelton"
    },
    {
      "mesh": 0,
      "name": "mage_skeelton_unwrap_mage_1_0"
    },
    {
      "mesh": 1,
      "name": "mage_skeelton_uwrap_mage_2_0"
    },
    {
      "mesh": 2,
      "name": "mage_skeelton_flame1_0"
    }
  ],
  "samplers": [
    {
      "magFilter": 9729,
      "minFilter": 9987,
      "wrapS": 10497,
      "wrapT": 10497
    }
  ],
  "scene": 0,
  "scenes": [
    {
      "name": "Sketchfab_Scene",
      "nodes": [
        0
      ]
    }
  ],
  "textures": [
    {
      "sampler": 0,
      "source": 0
    },
    {
      "sampler": 0,
      "source": 1
    },
    {
      "sampler": 0,
      "source": 2
    },
    {
      "sampler": 0,
      "source": 3
    },
    {
      "sampler": 0,
      "source": 4
    },
    {
      "sampler": 0,
      "source": 5
    },
    {
      "sampler": 0,
      "source": 6
    }
  ]
}
