<svg xmlns="http://www.w3.org/2000/svg" version="1.1" xmlns:xlink="http://www.w3.org/1999/xlink" xmlns:svgjs="http://svgjs.dev/svgjs" width="1000" height="1000" viewBox="0 0 1000 1000"><g transform="matrix(1,0,0,1,0,0)"><svg viewBox="0 0 280 280" data-background-color="#ffffff" preserveAspectRatio="xMidYMid meet" height="1000" width="1000" xmlns="http://www.w3.org/2000/svg" xmlns:xlink="http://www.w3.org/1999/xlink"><g id="tight-bounds" transform="matrix(1,0,0,1,0,0)"><svg viewBox="0 0 280 280" height="280" width="280"><g><svg viewBox="0 0 280 280" height="280" width="280"><g><svg viewBox="0 0 280 280" height="280" width="280"><g id="textblocktransform"><svg viewBox="0 0 280 280" height="280" width="280" id="textblock"><g><svg viewBox="0 0 280 280" height="280" width="280"><g transform="matrix(1,0,0,1,90.50252531694167,90.50252531694167)"><svg viewBox="0 0 98.99494936611666 98.99494936611666" height="98.99494936611666" width="98.99494936611666"><g><circle r="49" cx="49.49747468305833" cy="49.49747468305833" fill="#8789fe" data-fill-palette-color="accent"></circle></g></svg></g><g><path d="M3.631 98.63l24.066 6.742c1.087 0.304 1.439 1.137 1.059 2.496v0c-0.374 1.334-1.104 1.848-2.191 1.545v0l-24.066-6.743c-1.087-0.304-1.443-1.124-1.07-2.457v0c0.381-1.36 1.115-1.888 2.201-1.583z" fill="#8789fe" data-fill-palette-color="primary"></path><path d="M42.364 52.702l4.599-5.024c0.411-0.449 0.934-0.826 1.572-1.13 0.637-0.315 1.317-0.553 2.042-0.715v0l-0.021 0.023c0.72-0.166 1.46-0.124 2.222 0.124 0.762 0.249 1.489 0.69 2.182 1.324v0l3.558 3.258c1.405 1.287 2.026 2.716 1.861 4.287v0c-0.086 0.755-0.254 1.453-0.503 2.095-0.259 0.643-0.593 1.188-1.004 1.637v0l-5.195 5.674c-0.411 0.449-0.925 0.83-1.542 1.144-0.618 0.305-1.299 0.533-2.043 0.685v0c-1.551 0.303-3.028-0.189-4.434-1.476v0l-1.712-1.567c-0.817-0.748-0.758-1.633 0.177-2.655v0c0.954-1.042 1.839-1.188 2.657-0.44v0l1.51 1.383c0.449 0.411 0.973 0.653 1.574 0.727 0.606 0.069 1.2-0.216 1.785-0.854v0l4.004-4.373c0.584-0.638 0.813-1.253 0.686-1.845-0.122-0.597-0.407-1.101-0.856-1.512v0l-3.147-2.881c-0.434-0.397-0.958-0.634-1.574-0.713-0.611-0.083-1.209 0.194-1.793 0.833v0l-4.599 5.023c-0.826 0.902-2.003 1.528-3.532 1.878v0c-1.585 0.271-3.063-0.221-4.434-1.476v0l-3.095-2.834c-0.693-0.634-1.191-1.315-1.496-2.043-0.305-0.728-0.416-1.467-0.335-2.216v0l-0.02 0.022c0.117-0.718 0.302-1.405 0.554-2.062 0.253-0.666 0.584-1.224 0.996-1.672v0l5.194-5.674c0.411-0.449 0.934-0.826 1.572-1.131 0.637-0.315 1.307-0.562 2.011-0.741v0l-0.02 0.022c0.74-0.147 1.485-0.101 2.237 0.138 0.752 0.239 1.474 0.676 2.167 1.311v0l1.54 1.41c0.812 0.744 0.742 1.636-0.212 2.678v0c-0.935 1.022-1.809 1.161-2.622 0.417v0l-1.3-1.191c-0.434-0.397-0.953-0.63-1.559-0.699-0.601-0.074-1.194 0.208-1.778 0.846v0l-4.004 4.373c-0.584 0.638-0.815 1.255-0.693 1.853 0.127 0.592 0.407 1.087 0.84 1.483v0l2.647 2.423c0.454 0.415 0.976 0.655 1.567 0.72 0.596 0.06 1.185-0.229 1.769-0.867z" fill="#8789fe" data-fill-palette-color="primary"></path><path d="M114.816 27.533l-14.138-20.536-0.707 24.913-0.011-0.039c-0.037 0.377-0.14 0.707-0.311 0.99-0.177 0.285-0.434 0.477-0.77 0.575v0c-0.181 0.053-0.361 0.089-0.54 0.107-0.178 0.017-0.365 0.03-0.559 0.038v0l0.039-0.012c-1.404-0.03-2.09-0.613-2.059-1.749v0l0.803-25.702c0.003-0.395 0.111-0.758 0.323-1.089 0.206-0.328 0.494-0.572 0.863-0.729v0c0.361-0.184 0.719-0.346 1.072-0.486 0.353-0.139 0.631-0.239 0.831-0.297v0c0.201-0.059 0.488-0.126 0.861-0.201 0.372-0.075 0.757-0.146 1.152-0.213v0c0.324-0.046 0.682 0.031 1.072 0.233 0.393 0.208 0.713 0.434 0.961 0.678v0c2.406 3.503 4.838 7.031 7.294 10.583 2.456 3.552 4.884 7.08 7.284 10.585v0c0.623 0.943 0.363 1.805-0.781 2.587v0c-0.168 0.099-0.319 0.186-0.451 0.259-0.14 0.076-0.3 0.141-0.482 0.195v0c-0.311 0.092-0.628 0.069-0.95-0.068-0.322-0.137-0.591-0.357-0.807-0.66v0zM107.761 21.667v0c0.214 0.726 0.143 1.416-0.214 2.071-0.363 0.656-0.904 1.091-1.623 1.303v0c-0.719 0.212-1.403 0.139-2.051-0.22-0.642-0.36-1.069-0.903-1.284-1.629v0c-0.212-0.719-0.146-1.404 0.197-2.055 0.348-0.659 0.882-1.095 1.602-1.307v0c0.719-0.212 1.411-0.138 2.073 0.223 0.655 0.356 1.088 0.894 1.3 1.614z" fill="#8789fe" data-fill-palette-color="primary"></path><path d="M174.312 24.301l0.958-4.376c0.116-0.528 0.033-1.082-0.248-1.663-0.288-0.582-0.916-1.013-1.885-1.295v0c-0.811 0.639-1.678 0.857-2.602 0.655v0c-0.779-0.171-1.382-0.59-1.81-1.258-0.433-0.676-0.561-1.416-0.385-2.222v0c0.175-0.799 0.6-1.414 1.276-1.847 0.668-0.428 1.391-0.556 2.171-0.386v0c0.416 0.091 0.8 0.296 1.151 0.615 0.353 0.313 0.653 0.665 0.899 1.059v0c0.513 0.092 0.923 0.098 1.231 0.02 0.301-0.079 0.539-0.204 0.714-0.373 0.167-0.164 0.289-0.372 0.365-0.625 0.081-0.245 0.149-0.493 0.205-0.744v0l0.761-3.475c0.126-0.574 0.063-1.141-0.187-1.701-0.251-0.56-0.802-0.933-1.654-1.12v0l-7.198-1.576-5.007 22.715c-0.101 0.462-0.392 0.765-0.873 0.908-0.476 0.152-0.968 0.172-1.476 0.061v0c-1.353-0.296-1.909-0.996-1.668-2.098v0l5.236-23.9c0.181-0.825 0.516-1.329 1.005-1.512 0.483-0.185 1.022-0.212 1.616-0.082v0l9.99 2.188c0.601 0.132 1.212 0.387 1.835 0.765 0.629 0.38 1.198 0.83 1.707 1.349v0l-0.03-0.006c0.499 0.566 0.815 1.237 0.949 2.013 0.128 0.775 0.089 1.631-0.116 2.569v0l-0.853 3.89c-0.201 0.917-0.561 1.627-1.078 2.13-0.518 0.502-1.033 0.877-1.544 1.125v0c0.257 0.25 0.502 0.501 0.738 0.753 0.227 0.257 0.408 0.522 0.542 0.793v0c0.228 0.382 0.382 0.813 0.464 1.295 0.076 0.473 0.049 1.007-0.081 1.6v0l-1.078 4.921c-0.414 1.888-1.454 3.116-3.121 3.684v0c-0.834 0.302-1.603 0.496-2.307 0.584-0.709 0.08-1.384 0.05-2.024-0.09v0l-5.099-1.117c-0.389-0.085-0.658-0.31-0.806-0.675-0.147-0.371-0.163-0.821-0.047-1.349v0c0.252-1.148 0.859-1.617 1.822-1.406v0l4.723 1.035c0.845 0.185 1.495 0.075 1.95-0.33 0.449-0.407 0.738-0.907 0.869-1.501z" fill="#8789fe" data-fill-palette-color="primary"></path><path d="M225.021 61.589l-9.637-8.579c-0.651-0.58-0.942-1.137-0.872-1.672 0.069-0.535 0.284-1.005 0.643-1.409v0l15.796-17.745c0.359-0.404 0.796-0.666 1.311-0.786 0.519-0.126 1.104 0.101 1.755 0.68v0l9.16 8.154c0.651 0.58 0.603 1.324-0.143 2.234v0c-0.764 0.93-1.507 1.073-2.229 0.431v0l-7.714-6.867-13.896 15.61 8.191 7.291c0.651 0.58 0.6 1.308-0.153 2.185v0c-0.773 0.94-1.511 1.098-2.212 0.473zM233.279 49.4v0c-0.548 0.616-1.228 0.942-2.039 0.98-0.802 0.037-1.511-0.219-2.126-0.766v0c-0.596-0.53-0.916-1.191-0.963-1.983-0.047-0.801 0.204-1.51 0.753-2.126v0c0.544-0.611 1.216-0.939 2.017-0.986 0.792-0.046 1.485 0.196 2.081 0.726v0c0.616 0.548 0.952 1.223 1.008 2.024 0.057 0.81-0.187 1.521-0.731 2.131z" fill="#8789fe" data-fill-palette-color="primary"></path><path d="M253.196 111.801l-4.696-12.884c-0.296-0.813-0.288-1.441 0.025-1.886 0.315-0.438 0.726-0.75 1.234-0.935v0l22.883-8.339c1.06-0.386 1.824 0.062 2.291 1.344v0c0.484 1.327 0.195 2.183-0.865 2.569v0l-21.559 7.858 4.029 11.055c0.292 0.8-0.105 1.398-1.191 1.794v0c-1.127 0.461-1.844 0.269-2.151-0.576z" fill="#8789fe" data-fill-palette-color="primary"></path><path d="M33.548 178.807l-23.892 6.69c-1.08 0.302-1.809-0.22-2.185-1.566v0c-0.372-1.327-0.018-2.142 1.062-2.445v0l23.892-6.69c1.074-0.301 1.796 0.213 2.168 1.54v0c0.377 1.347 0.029 2.171-1.045 2.471z" fill="#8789fe" data-fill-palette-color="primary"></path><path d="M50.085 226.15l4.566 4.985c0.406 0.443 0.736 0.994 0.99 1.65 0.253 0.657 0.429 1.348 0.526 2.074v0l-0.021-0.022c0.097 0.736-0.012 1.468-0.326 2.195-0.314 0.728-0.815 1.406-1.502 2.036v0l-3.535 3.238c-1.39 1.273-2.853 1.762-4.39 1.465v0c-0.74-0.147-1.416-0.375-2.029-0.684-0.613-0.309-1.123-0.685-1.528-1.129v0l-5.155-5.627c-0.411-0.448-0.743-0.991-0.998-1.63-0.254-0.638-0.42-1.329-0.497-2.073v0c-0.166-1.562 0.446-2.979 1.836-4.252v0l1.704-1.561c0.807-0.739 1.676-0.601 2.607 0.415v0c0.945 1.031 1.014 1.917 0.207 2.656v0l-1.495 1.37c-0.448 0.411-0.733 0.91-0.855 1.497-0.126 0.592 0.1 1.205 0.68 1.838v0l3.971 4.335c0.584 0.638 1.177 0.92 1.778 0.845 0.596-0.07 1.118-0.31 1.566-0.72v0l3.124-2.862c0.428-0.393 0.708-0.887 0.84-1.484 0.131-0.597-0.095-1.214-0.679-1.852v0l-4.56-4.977c-0.822-0.897-1.335-2.117-1.539-3.662v0c-0.131-1.593 0.481-3.011 1.836-4.252v0l3.072-2.814c0.688-0.63 1.407-1.065 2.159-1.304 0.742-0.24 1.481-0.284 2.215-0.133v0l-0.027-0.03c0.705 0.179 1.373 0.424 2.005 0.734 0.627 0.305 1.147 0.682 1.557 1.13v0l5.155 5.628c0.406 0.443 0.736 0.994 0.99 1.65 0.253 0.657 0.436 1.341 0.548 2.054v0l-0.021-0.022c0.087 0.745-0.022 1.477-0.325 2.195-0.309 0.723-0.807 1.399-1.495 2.029v0l-1.525 1.396c-0.807 0.739-1.683 0.593-2.628-0.437v0c-0.926-1.011-0.986-1.887-0.179-2.627v0l1.293-1.184c0.428-0.393 0.706-0.885 0.832-1.477 0.121-0.588-0.11-1.2-0.694-1.838v0l-3.97-4.335c-0.58-0.633-1.167-0.914-1.764-0.845-0.601 0.074-1.116 0.307-1.544 0.7v0l-2.631 2.41c-0.448 0.411-0.731 0.908-0.847 1.491-0.111 0.579 0.123 1.184 0.702 1.817z" fill="#8789fe" data-fill-palette-color="primary"></path><path d="M109.135 277.505l-0.744-24.732-13.995 20.39 0.009-0.029c-0.233 0.29-0.498 0.508-0.795 0.653-0.296 0.145-0.613 0.168-0.95 0.069v0c-0.181-0.053-0.348-0.12-0.501-0.2-0.159-0.082-0.323-0.172-0.491-0.272v0l0.039 0.012c-1.158-0.778-1.417-1.633-0.777-2.564v0l14.503-21.001c0.217-0.331 0.501-0.578 0.852-0.743 0.351-0.164 0.725-0.213 1.121-0.145v0c0.402 0.048 0.785 0.108 1.151 0.181 0.366 0.073 0.649 0.139 0.851 0.198v0c0.201 0.059 0.475 0.158 0.821 0.294 0.353 0.139 0.711 0.287 1.074 0.444v0c0.304 0.139 0.562 0.398 0.775 0.777 0.219 0.381 0.363 0.741 0.432 1.079v0c0.119 4.212 0.247 8.462 0.386 12.75 0.134 4.28 0.262 8.53 0.386 12.75v0c0.008 1.122-0.673 1.7-2.043 1.734v0c-0.195-0.008-0.368-0.017-0.521-0.027-0.159-0.012-0.325-0.043-0.5-0.094v0c-0.318-0.094-0.571-0.285-0.761-0.573-0.196-0.29-0.301-0.617-0.314-0.98v0zM106.401 268.817v0c-0.212 0.719-0.645 1.257-1.3 1.614-0.646 0.352-1.329 0.422-2.048 0.211v0c-0.713-0.21-1.242-0.637-1.588-1.282-0.344-0.651-0.409-1.336-0.198-2.055v0c0.21-0.713 0.636-1.25 1.278-1.61 0.64-0.354 1.316-0.426 2.029-0.216v0c0.719 0.212 1.255 0.641 1.607 1.287 0.357 0.654 0.43 1.338 0.22 2.051z" fill="#8789fe" data-fill-palette-color="primary"></path><path d="M176.41 271.217l-0.951-4.336c-0.116-0.528-0.422-0.993-0.919-1.396-0.497-0.403-1.241-0.534-2.234-0.392v0c-0.469 0.919-1.159 1.479-2.07 1.679v0c-0.772 0.169-1.492 0.04-2.16-0.388-0.668-0.428-1.09-1.041-1.265-1.839v0c-0.175-0.799-0.048-1.529 0.381-2.19 0.428-0.668 1.027-1.087 1.8-1.256v0c0.409-0.09 0.84-0.067 1.291 0.069 0.447 0.144 0.866 0.339 1.259 0.585v0c0.497-0.13 0.866-0.294 1.107-0.491 0.24-0.198 0.402-0.406 0.485-0.626 0.083-0.219 0.111-0.457 0.082-0.713-0.035-0.255-0.08-0.508-0.135-0.759v0l-0.758-3.455c-0.125-0.568-0.415-1.054-0.871-1.459-0.461-0.397-1.113-0.503-1.958-0.317v0l-7.137 1.566 4.918 22.558c0.1 0.455-0.035 0.848-0.405 1.178-0.369 0.337-0.804 0.56-1.306 0.671v0c-1.346 0.295-2.14-0.105-2.38-1.2v0l-5.205-23.72c-0.18-0.818-0.089-1.413 0.273-1.782 0.363-0.363 0.842-0.61 1.436-0.741v0l9.909-2.174c0.594-0.13 1.249-0.156 1.965-0.079 0.724 0.083 1.426 0.254 2.105 0.514v0l-0.03 0.006c0.682 0.3 1.242 0.772 1.681 1.416 0.445 0.642 0.771 1.432 0.976 2.37v0l0.847 3.861c0.2 0.911 0.169 1.699-0.093 2.365-0.262 0.666-0.57 1.218-0.923 1.656v0c0.338 0.12 0.663 0.245 0.975 0.377 0.313 0.132 0.587 0.293 0.822 0.484v0c0.366 0.252 0.683 0.576 0.951 0.974 0.266 0.391 0.464 0.884 0.594 1.478v0l1.073 4.891c0.41 1.868-0.017 3.404-1.282 4.608v0c-0.633 0.616-1.247 1.111-1.843 1.483-0.604 0.368-1.223 0.621-1.857 0.761v0l-5.059 1.11c-0.389 0.085-0.728-0.006-1.015-0.276-0.281-0.27-0.479-0.67-0.594-1.197v0c-0.249-1.135 0.105-1.808 1.061-2.018v0l4.683-1.028c0.838-0.184 1.376-0.554 1.613-1.111 0.239-0.55 0.293-1.123 0.163-1.717z" fill="#8789fe" data-fill-palette-color="primary"></path><path d="M239.464 240.515l-9.565 8.523c-0.646 0.575-1.226 0.798-1.74 0.668-0.524-0.131-0.963-0.395-1.318-0.794v0l-15.689-17.609c-0.355-0.399-0.563-0.86-0.624-1.386-0.066-0.521 0.224-1.069 0.87-1.644v0l9.088-8.097c0.646-0.575 1.375-0.442 2.188 0.399v0c0.826 0.856 0.881 1.604 0.165 2.242v0l-7.65 6.816 13.802 15.49 8.127-7.241c0.641-0.571 1.351-0.439 2.131 0.396v0c0.84 0.872 0.912 1.617 0.215 2.237zM228.391 230.983v0c0.544 0.61 0.788 1.316 0.733 2.117-0.051 0.796-0.381 1.466-0.992 2.01v0c-0.595 0.53-1.286 0.771-2.073 0.72-0.792-0.046-1.46-0.374-2.004-0.984v0c-0.544-0.61-0.791-1.309-0.74-2.095 0.041-0.787 0.359-1.446 0.954-1.977v0c0.61-0.544 1.314-0.795 2.111-0.754 0.797 0.032 1.468 0.353 2.011 0.963z" fill="#8789fe" data-fill-palette-color="primary"></path><path d="M273.62 181.481l-4.652 12.792c-0.296 0.813-0.702 1.287-1.218 1.422-0.523 0.133-1.035 0.109-1.537-0.073v0l-22.727-8.266c-1.048-0.381-1.341-1.207-0.879-2.476v0c0.48-1.321 1.244-1.791 2.292-1.41v0l21.412 7.787 3.994-10.982c0.286-0.787 0.966-0.986 2.04-0.596v0c1.153 0.369 1.578 0.969 1.275 1.802z" fill="#8789fe" data-fill-palette-color="primary"></path><path d="M1.782 142.934c0-5.942 4.817-10.759 10.76-10.759 5.942 0 10.759 4.817 10.759 10.759 0 5.942-4.817 10.759-10.759 10.76-5.942 0-10.759-4.817-10.76-10.76z" fill="#8789fe" data-fill-palette-color="primary"></path><path d="M257.196 142.934c0-5.942 4.817-10.759 10.759-10.759 5.942 0 10.759 4.817 10.759 10.759 0 5.942-4.817 10.759-10.759 10.76-5.942 0-10.759-4.817-10.759-10.76z" fill="#8789fe" data-fill-palette-color="primary"></path></g></svg></g></svg></g></svg></g></svg></g><defs></defs></svg><rect width="280" height="280" fill="none" stroke="none" visibility="hidden"></rect></g></svg></g></svg>